<svg id="Layer" enable-background="new 0 0 64 64" height="512" viewBox="0 0 64 64" width="512" xmlns="http://www.w3.org/2000/svg"><path d="m44 12v40c0 1.78-2.15 2.67-3.41 1.41l-20.1-20.41c-.65-.75-.65-1.87 0-2.62l20.1-19.79c1.26-1.26 3.41-.37 3.41 1.41z" fill="#ff7043"/><path d="m19.065 34.403 20.11 20.421c.768.767 1.786 1.174 2.825 1.174.516 0 1.036-.1 1.534-.306 1.498-.621 2.466-2.07 2.466-3.692v-40c0-1.622-.968-3.071-2.466-3.692-1.5-.62-3.209-.28-4.348.857l-20.1 19.79c-.037.037-.073.075-.108.115-1.295 1.494-1.295 3.747 0 5.241.029.031.058.062.087.092zm22.934-22.422s.001.006.001.019l.015 40.007-20.006-20.316z" fill="#012e52"/></svg>